<svg width="32" height="32" viewBox="0 0 32 32" fill="none" xmlns="http://www.w3.org/2000/svg">
  <rect width="32" height="32" rx="6" fill="#2563EB"/>
  <!-- Stethoscope design -->
  <path d="M8 12C8 9.79086 9.79086 8 12 8H20C22.2091 8 24 9.79086 24 12V20C24 22.2091 22.2091 24 20 24H12C9.79086 24 8 22.2091 8 20V12Z" fill="white"/>
  <!-- Stethoscope tube -->
  <path d="M12 16C12 14.8954 12.8954 14 14 14H18C19.1046 14 20 14.8954 20 16V18C20 19.1046 19.1046 20 18 20H14C12.8954 20 12 19.1046 12 18V16Z" fill="#2563EB"/>
  <!-- Stethoscope head -->
  <circle cx="16" cy="16" r="3" fill="white" stroke="#2563EB" stroke-width="1"/>
  <!-- Cross symbol -->
  <path d="M15 15H17V17H15V15Z" fill="#2563EB"/>
  <path d="M15.5 14.5H16.5V17.5H15.5V14.5Z" fill="#2563EB"/>
</svg>
